<svg xmlns="http://www.w3.org/2000/svg" viewBox="0 0 141.64866 99.98111"><title>Recurso 1</title><g id="edadadb7-64ac-4e2b-a468-579148553045" data-name="Capa 2"><g id="bd61a75d-3821-42eb-b5a0-4756ff52989d" data-name="Capa 1"><path d="M38.40214,99.98111q-1.9361,0-3.88634-.18788A37.4603,37.4603,0,0,1,8.69351,85.6647,39.93413,39.93413,0,0,1,.31214,55.86213c1.65105-12.95747,10.76465-21.38388,19.46259-27.9186,1.30617-.98188,2.5184-2.05127,3.8014-3.185,4.96217-4.38307,10.09548-8.91027,20.26045-7.61826,10.35414.99733,14.5815,6.68014,18.66859,12.17635.92655,1.247,1.84537,2.48365,2.83369,3.647C72.378,41.25747,79.40561,51.48807,78.15349,64.49187a38.62064,38.62064,0,0,1-14.503,26.54679A40.20231,40.20231,0,0,1,38.40214,99.98111Zm2.05255-81.08555c-7.25278,0-11.30771,3.58007-15.56981,7.34416-1.256,1.10928-2.55443,2.25588-3.92366,3.28408C12.594,35.81015,3.83043,43.88525,2.27332,56.11178a37.95013,37.95013,0,0,0,7.96443,28.3201,35.50608,35.50608,0,0,0,24.4685,13.395h0A38.24946,38.24946,0,0,0,62.41252,89.497,36.66093,36.66093,0,0,0,76.18715,64.30141c1.18135-12.27029-5.58372-22.08008-12.35521-30.05866-1.01534-1.1955-1.96119-2.46564-2.91347-3.74607-4.006-5.38683-7.78941-10.47511-17.30194-11.39265A25.20511,25.20511,0,0,0,40.45469,18.89556Z"/><path d="M39.77829,44.71913C32.189,43.988,26.55458,38.01888,26.92066,34.2187s6.47082-5.76136,14.06012-5.03026S54.77,33.066,54.404,36.86624,47.3676,45.45023,39.77829,44.71913Z"/><path d="M77.3946,28.2732,69.5825,8.4463h4.36193L79.6151,23.67352,85.28577,8.4463H89.6477L81.8356,28.2732Z"/><path d="M92.96043,28.2732v-15.465c0-.43625-.15868-.59493-.59439-.59493H91.0971V8.4463h2.10163c2.77562,0,3.72719,1.07044,3.72719,3.64812V28.2732ZM94.26917,0a2.81543,2.81543,0,1,1-2.81543,2.81543A2.82629,2.82629,0,0,1,94.26917,0Z"/><path d="M113.17546,12.84749a20.67033,20.67033,0,0,0-5.67067-.91176c-1.78426,0-3.29095.47552-3.29095,1.745,0,3.72719,10.38924,1.82406,10.38924,9.19938,0,4.4808-3.60886,5.67067-7.69322,5.67067a27.54176,27.54176,0,0,1-7.17737-1.11026l.51586-4.00529a21.3238,21.3238,0,0,0,6.62224,1.34855c2.06182,0,3.72719-.43625,3.72719-2.14143,0-3.41037-10.38923-1.82406-10.38923-9.1203,0-3.88642,3.41036-5.35331,7.09828-5.35331a22.24265,22.24265,0,0,1,6.42375,1.03064Z"/><path d="M97.10072,61.717H93.13523V33.95913h3.68792l.27757,1.46689a7.29313,7.29313,0,0,1,4.63949-1.74445c4.63949,0,7.8519,3.84607,7.8519,9.00142v2.1807c0,5.90843-2.97411,9.19991-7.65341,9.19991a6.47956,6.47956,0,0,1-4.838-2.2603Zm0-13.36336a6.879,6.879,0,0,0,4.44154,1.94294c2.65674,0,4.08436-1.78479,4.08436-5.512V42.72226c0-3.40982-1.70518-5.27369-4.12417-5.27369a6.34571,6.34571,0,0,0-4.40173,2.02255Z"/><path d="M123.9715,53.786l-.27756-2.30011a8.88336,8.88336,0,0,1-5.90843,2.57767c-3.64812,0-5.78955-2.10162-5.78955-6.10691V33.95913h3.96549v13.7996c0,1.62557.59493,2.53787,2.26031,2.53787,2.02255,0,4.243-1.62611,5.47218-3.01392V33.95913h3.96549V53.786Z"/><path d="M141.49,37.88482a4.71559,4.71559,0,0,0-1.86333-.43625c-2.06235,0-3.56905,1.348-4.60022,3.05319V53.786h-3.96549V33.95913h3.68792l.27757,2.1409a5.23873,5.23873,0,0,1,4.28285-2.41846,6.0057,6.0057,0,0,1,2.33938.47552Z"/><path d="M97.10018,94.92234H93.13469V67.16445h3.68792l.27757,1.46689a7.29313,7.29313,0,0,1,4.63949-1.74445c4.63949,0,7.8519,3.84607,7.8519,9.00142V78.069c0,5.90843-2.97411,9.19991-7.65341,9.19991a6.47956,6.47956,0,0,1-4.838-2.2603Zm0-13.36336a6.879,6.879,0,0,0,4.44154,1.94294c2.65675,0,4.08437-1.78479,4.08437-5.512V75.92758c0-3.40982-1.70519-5.27369-4.12418-5.27369a6.34571,6.34571,0,0,0-4.40173,2.02255Z"/><path d="M119.5068,86.91229a9.12455,9.12455,0,0,1-2.37918.35663c-2.93431,0-4.28286-1.745-4.28286-5.19462V57.92474h3.96549v24.07a1.31775,1.31775,0,0,0,1.42762,1.50723,3.27125,3.27125,0,0,0,1.03118-.15868Z"/><path d="M137.14161,85.36579a12.27526,12.27526,0,0,1-6.3054,1.90313c-5.82882,0-9.04069-3.96549-9.04069-9.91372,0-7.09775,3.92568-10.46831,8.36668-10.46831,4.12418,0,8.04986,3.01339,8.04986,8.80293a12.56815,12.56815,0,0,1-.51532,3.45017H125.87988a4.82289,4.82289,0,0,0,5.07574,4.36193,10.42453,10.42453,0,0,0,5.67014-1.90367Zm-11.22246-9.99333h8.32742c0-3.093-1.66538-4.71857-4.08437-4.71857C127.70394,70.65389,126.3554,72.83459,125.91915,75.37246Z"/></g></g></svg>